<svg fill="#f2ad4f" xmlns="http://www.w3.org/2000/svg"  viewBox="0 0 50 50" width="50px" height="50px"><path fill="none" stroke="#f2ad4f" stroke-linecap="round" stroke-linejoin="round" stroke-miterlimit="10" stroke-width="2" d="M10.3,36L5,36l-4-7l0-2c0-1.1,0.9-2,2-2h44c1.1,0,2,0.9,2,2v2l-4,7h-5.1"/><path fill="none" stroke="#f2ad4f" stroke-linecap="round" stroke-linejoin="round" stroke-miterlimit="10" stroke-width="2" d="M37.6 49L40 34.1c.1-.6-.4-1.1-.9-1.1H10.9c-.6 0-1 .5-.9 1.1L12.4 49M1 29L48.9 29M42 16A2 2 0 1 0 42 20 2 2 0 1 0 42 16zM46.2 24.8c0-2.7-.6-4.1-2.8-5.4M37.8 25c-.8-2.2-4.4-4.1-8.4-4.9 0 0-1.7-.4-.9-2 1-1.3 1.6-2.7 1.7-3.2 0 0 1.5-1.1 1.6-2.8.1-1.7-.3-1.8-.3-1.8.6-1.9.8-8.6-4-7.8-.7-1.8-5.7-2.9-8.1 1-1.2 1.9-1.6 4.6-.7 6.8 0 .2-.3-.2-.4.8-.1 1 .4 2.3.9 3 .2.3.6.5.8.6 0 0 .3 1.7 1.7 3.3.3 1.3-1 2-1 2-4 .7-7.7 2.7-8.5 4.9"/></svg>
