<svg fill="#f2ad4f" xmlns="http://www.w3.org/2000/svg"  viewBox="0 0 50.008 44.013" width="50px" height="50px"><g data-name="Слой 2"><g data-name="Слой 6"><path fill="none" stroke="#f2ad4f" stroke-linecap="round" stroke-linejoin="round" stroke-width="2" d="M6.294,39.265l2.7-1.76c1.493-.953,2.32-1.119,4.25-.122,1.867.965,7.614,3.966,9.047,4.663,4.412,2.147,6.306.225,8.437-1.008,1.82-1.052,14.7-9.623,16.051-10.584,2.111-1.5,2.757-3.017,1.8-4.273-.725-.949-2.352-1.528-5.672.441.307-1.387-.024-2.328-1.292-2.584a6.238,6.238,0,0,0-4.325,1.249c.733-3.073-3.23-2.407-4.982-1.363-1.548.922-7,4.376-7,4.376"/><path fill="none" stroke="#f2ad4f" stroke-linecap="round" stroke-linejoin="round" stroke-width="2" d="M18,33.011a27.645,27.645,0,0,0,6.2,1h5.8c2.505,0,4-.764,4-2.5,0-1.591-1.426-2.5-4-2.5a23.827,23.827,0,0,1-8.255-1.958c-1.611-.965-2.32-4.045-8.284-4.045a11.1,11.1,0,0,0-5.183,1.182C5.66,25.228,1,27.465,1,27.465"/><path fill="none" stroke="#f2ad4f" stroke-linecap="round" stroke-linejoin="round" stroke-width="2" d="M42.9,26.622,33.858,32.7"/><path fill="none" stroke="#f2ad4f" stroke-linecap="round" stroke-linejoin="round" stroke-width="2" d="M37.28,25.3l-5.565,3.841"/><path fill="none" stroke="#f2ad4f" stroke-width="2" d="M35.012,11.005A10,10,0,1,1,25.007,1,10,10,0,0,1,35.012,11.005Z"/><path fill="none" stroke="#f2ad4f" stroke-miterlimit="10" stroke-width="2" d="M22.008,11.031h4a2,2,0,0,0,2-2h0a2,2,0,0,0-2-2h-4v8h5.01a1.99,1.99,0,0,0,1.99-1.99v-.02a1.99,1.99,0,0,0-1.99-1.99h-4.01"/><line x1="25.008" x2="25.008" y1="6.031" y2="4.031" fill="none" stroke="#f2ad4f" stroke-linejoin="round" stroke-width="2"/><line x1="25.008" x2="25.008" y1="18.031" y2="16.031" fill="none" stroke="#f2ad4f" stroke-linejoin="round" stroke-width="2"/></g></g></svg>
