<svg fill="#f2ad4f" xmlns="http://www.w3.org/2000/svg"  viewBox="0 0 50 50" width="50px" height="50px"><path fill="none" stroke="#f2ad4f" stroke-linecap="round" stroke-linejoin="round" stroke-miterlimit="10" stroke-width="2" d="M23 7h4M38 7h5c1.1 0 2 .9 2 2v34c0 1.1-.9 2-2 2H7c-1.1 0-2-.9-2-2V9c0-1.1.9-2 2-2h12"/><path d="M9 10A1 1 0 1 0 9 12 1 1 0 1 0 9 10zM41 10A1 1 0 1 0 41 12 1 1 0 1 0 41 10zM9 40A1 1 0 1 0 9 42 1 1 0 1 0 9 40zM41 40A1 1 0 1 0 41 42 1 1 0 1 0 41 40z"/><path fill="none" stroke="#f2ad4f" stroke-miterlimit="10" stroke-width="2" d="M27 5H38V12H27zM19 5H23V12H19zM27 17H38V28H27zM12 17H20V28H12z"/><path fill="none" stroke="#f2ad4f" stroke-miterlimit="10" stroke-width="2" d="M31 21H34V24H31zM31 34L11 34M11 38L31 38M36 34A2 2 0 1 0 36 38 2 2 0 1 0 36 34zM16 17L16 28"/></svg>
