<?xml version="1.0" encoding="UTF-8"?>
<svg xmlns="http://www.w3.org/2000/svg" xmlns:xlink="http://www.w3.org/1999/xlink" width="50pt" height="50pt" viewBox="0 0 50 50" version="1.1">
<g id="surface1708425">
<path style="fill:none;stroke-width:2;stroke-linecap:butt;stroke-linejoin:round;stroke:rgb(94.901961%,67.843139%,30.980393%);stroke-opacity:1;stroke-miterlimit:4;" d="M 25.001953 18.001641 L 25.001953 16.001484 " transform="matrix(0.980392,0,0,0.980392,0,2.941176)"/>
<path style="fill:none;stroke-width:2;stroke-linecap:round;stroke-linejoin:round;stroke:rgb(94.901961%,67.843139%,30.980393%);stroke-opacity:1;stroke-miterlimit:4;" d="M 13.001016 29.998594 L 16.00125 30.998672 L 14.001094 33.998906 L 12.000938 32.998828 L 12.000938 30.998672 " transform="matrix(0.980392,0,0,0.980392,0,2.941176)"/>
<path style="fill:none;stroke-width:2;stroke-linecap:round;stroke-linejoin:round;stroke:rgb(94.901961%,67.843139%,30.980393%);stroke-opacity:1;stroke-miterlimit:4;" d="M 17.001328 30.998672 L 19.001484 32.998828 L 17.001328 35.999062 L 15.001172 34.998984 " transform="matrix(0.980392,0,0,0.980392,0,2.941176)"/>
<path style="fill:none;stroke-width:2;stroke-linecap:round;stroke-linejoin:round;stroke:rgb(94.901961%,67.843139%,30.980393%);stroke-opacity:1;stroke-miterlimit:4;" d="M 19.001484 30.998672 L 23.001797 33.998906 L 20.001562 38.999297 L 18.001406 36.999141 " transform="matrix(0.980392,0,0,0.980392,0,2.941176)"/>
<path style="fill:none;stroke-width:2;stroke-linecap:round;stroke-linejoin:round;stroke:rgb(94.901961%,67.843139%,30.980393%);stroke-opacity:1;stroke-miterlimit:4;" d="M 24.001875 34.998984 L 24.001875 38.999297 L 21.001641 38.999297 " transform="matrix(0.980392,0,0,0.980392,0,2.941176)"/>
<path style="fill:none;stroke-width:2;stroke-linecap:round;stroke-linejoin:round;stroke:rgb(94.901961%,67.843139%,30.980393%);stroke-opacity:1;stroke-miterlimit:4;" d="M 25.001953 34.998984 L 28.998281 38.999297 " transform="matrix(0.980392,0,0,0.980392,0,2.941176)"/>
<path style="fill:none;stroke-width:2;stroke-linecap:round;stroke-linejoin:round;stroke:rgb(94.901961%,67.843139%,30.980393%);stroke-opacity:1;stroke-miterlimit:4;" d="M 25.998047 30.998672 L 32.998594 36.999141 " transform="matrix(0.980392,0,0,0.980392,0,2.941176)"/>
<path style="fill:none;stroke-width:2;stroke-linecap:round;stroke-linejoin:round;stroke:rgb(94.901961%,67.843139%,30.980393%);stroke-opacity:1;stroke-miterlimit:4;" d="M 28.998281 27.998437 L 35.998828 34.998984 " transform="matrix(0.980392,0,0,0.980392,0,2.941176)"/>
<path style="fill:none;stroke-width:2;stroke-linecap:round;stroke-linejoin:round;stroke:rgb(94.901961%,67.843139%,30.980393%);stroke-opacity:1;stroke-miterlimit:4;" d="M 37.998984 30.998672 L 27.998203 22.998047 L 25.001953 22.001953 L 23.001797 24.998203 L 20.001562 25.998281 L 19.001484 22.998047 L 25.001953 17.001562 " transform="matrix(0.980392,0,0,0.980392,0,2.941176)"/>
<path style="fill:none;stroke-width:2;stroke-linecap:round;stroke-linejoin:round;stroke:rgb(94.901961%,67.843139%,30.980393%);stroke-opacity:1;stroke-miterlimit:4;" d="M 39.999141 30.998672 L 37.998984 33.998906 L 31.998516 37.999219 L 28.998281 38.999297 " transform="matrix(0.980392,0,0,0.980392,0,2.941176)"/>
<path style="fill:none;stroke-width:2;stroke-linecap:round;stroke-linejoin:round;stroke:rgb(94.901961%,67.843139%,30.980393%);stroke-opacity:1;stroke-miterlimit:4;" d="M 11.000859 30.998672 L 4.000312 27.998437 " transform="matrix(0.980392,0,0,0.980392,0,2.941176)"/>
<path style="fill:none;stroke-width:2;stroke-linecap:round;stroke-linejoin:round;stroke:rgb(94.901961%,67.843139%,30.980393%);stroke-opacity:1;stroke-miterlimit:4;" d="M 24.001875 17.001562 L 13.001016 17.001562 L 10.000781 15.001406 " transform="matrix(0.980392,0,0,0.980392,0,2.941176)"/>
<path style="fill:none;stroke-width:2;stroke-linecap:round;stroke-linejoin:round;stroke:rgb(94.901961%,67.843139%,30.980393%);stroke-opacity:1;stroke-miterlimit:4;" d="M 36.998906 18.001641 L 33.998672 19.001719 L 29.998359 18.001641 L 27.998203 17.001562 L 25.998047 17.001562 " transform="matrix(0.980392,0,0,0.980392,0,2.941176)"/>
<path style="fill:none;stroke-width:2;stroke-linecap:round;stroke-linejoin:round;stroke:rgb(94.901961%,67.843139%,30.980393%);stroke-opacity:1;stroke-miterlimit:4;" d="M 37.998984 17.001562 L 41.999297 15.001406 L 47.999766 27.998437 L 41.999297 30.998672 " transform="matrix(0.980392,0,0,0.980392,0,2.941176)"/>
<path style="fill:none;stroke-width:2;stroke-linecap:round;stroke-linejoin:round;stroke:rgb(94.901961%,67.843139%,30.980393%);stroke-opacity:1;stroke-miterlimit:4;" d="M 4.000312 26.998359 L 9.000703 15.001406 " transform="matrix(0.980392,0,0,0.980392,0,2.941176)"/>
<path style="fill:none;stroke-width:2;stroke-linecap:round;stroke-linejoin:round;stroke:rgb(94.901961%,67.843139%,30.980393%);stroke-opacity:1;stroke-miterlimit:4;" d="M 27.998203 39.999375 L 25.998047 40.999453 L 24.001875 38.999297 " transform="matrix(0.980392,0,0,0.980392,0,2.941176)"/>
</g>
</svg>
