<svg fill="#f2ad4f" xmlns="http://www.w3.org/2000/svg"  viewBox="0 0 50 50" width="50px" height="50px"><path fill="none" stroke="#f2ad4f" stroke-linecap="round" stroke-miterlimit="10" stroke-width="2" d="M38 22v4c0 0 3-.326 3 3.222 0 1.84-1.209 3.594-3 3.778-2.556 6.622-6.685 14-12.996 14M24.996 47C18.685 47 14.556 39.622 12 33c-1.791-.184-3-1.938-3-3.778C9 25.674 12 26 12 26v-4"/><path fill="none" stroke="#f2ad4f" stroke-linecap="round" stroke-linejoin="round" stroke-miterlimit="10" stroke-width="2.066" d="M5,19c0,3.394,0.016,13.614,0.016,13.614"/><path fill="none" stroke="#f2ad4f" stroke-linecap="round" stroke-linejoin="round" stroke-miterlimit="10" stroke-width="2" d="M7,35.968C7,37.444,5,40,5,40s-2-2.603-2-4.032C3,34.882,3.895,34,5,34S7,34.882,7,35.968z"/><path d="M5 31A2 2 0 1 0 5 35A2 2 0 1 0 5 31Z"/><path fill="none" stroke="#f2ad4f" stroke-linecap="round" stroke-linejoin="round" stroke-miterlimit="10" stroke-width="2.066" d="M39,25c0,0,8.036-7.721,8-8.339C46.964,16.044,25.93,3.251,25.93,3.251c-0.577-0.335-1.284-0.335-1.861,0c0,0-21.033,12.792-21.069,13.41C2.964,17.28,11,25,11,25"/><path fill="none" stroke="#f2ad4f" stroke-linecap="round" stroke-linejoin="round" stroke-miterlimit="10" stroke-width="2.066" d="M38,25c0,0-5.068-2-13-2s-13,2-13,2v-6c0,0,4.914-3,13-3s13,3,13,3V25z"/></svg>
