<svg fill="#f2ad4f" xmlns="http://www.w3.org/2000/svg"  viewBox="0 0 50 50" width="50px" height="50px"><path fill="none" stroke="#f2ad4f" stroke-linecap="round" stroke-linejoin="round" stroke-miterlimit="10" stroke-width="2" d="M17 3A5 5 0 1 0 17 13 5 5 0 1 0 17 3zM25 21A6 6 0 1 0 25 33 6 6 0 1 0 25 21zM33 41c0-4.4-3.6-8-8-8s-8 3.6-8 8c0 .9 0 4.5 0 4.5s2 1.5 8 1.5 8-1.5 8-1.5S33 41.9 33 41zM41 15A6 6 0 1 0 41 27 6 6 0 1 0 41 15zM49 35c0-4.4-3.6-8-8-8s-8 3.6-8 8c0 .9 0 4.5 0 4.5s2 1.5 8 1.5 8-1.5 8-1.5S49 35.9 49 35zM9 15A6 6 0 1 0 9 27 6 6 0 1 0 9 15zM17 35c0-4.4-3.6-8-8-8s-8 3.6-8 8c0 .9 0 4.5 0 4.5S3 41 9 41s8-1.5 8-1.5S17 35.9 17 35z"/><path fill="none" stroke="#f2ad4f" stroke-linecap="round" stroke-linejoin="round" stroke-miterlimit="10" stroke-width="2" d="M24 20.8c0 0 0-.5 0-.8 0-3.9-3.1-7-7-7-2.2 0-4.1 1-5.4 2.6M32.8 3A5 5 0 1 0 32.8 13 5 5 0 1 0 32.8 3zM25.8 20.8c0 0 0-.5 0-.8 0-3.9 3.1-7 7-7 2.2 0 4.1 1 5.4 2.6"/></svg>
