<svg fill="#f2ad4f" xmlns="http://www.w3.org/2000/svg"  viewBox="0 0 50 50" width="50px" height="50px"><path fill="none" stroke="#f2ad4f" stroke-linecap="round" stroke-linejoin="round" stroke-miterlimit="10" stroke-width="2" d="M10.5 5A3.5 3.5 0 1 0 10.5 12 3.5 3.5 0 1 0 10.5 5zM39.5 5A3.5 3.5 0 1 0 39.5 12 3.5 3.5 0 1 0 39.5 5zM24.003 29c.3 0 .605-.068.893-.211l7-3c.204-.102.389-.238.545-.401C32.497 25.329 35 21 35 21M39 43c0 1.105.895 2 2 2s2-.895 2-2V21M35 21v22c0 1.105.895 2 2 2s2-.895 2-2V31M11 31v12c0 1.105.895 2 2 2s2-.895 2-2V21"/><path fill="none" stroke="#f2ad4f" stroke-linecap="round" stroke-miterlimit="10" stroke-width="2" d="M11,35c0,0.24-0.043,0.478-0.127,0.702l-3,8C7.571,44.505,6.81,45.001,6,45.001c-0.233,0-0.471-0.042-0.702-0.128c-1.034-0.389-1.559-1.541-1.171-2.575L7,34.638L7,21"/><path fill="none" stroke="#f2ad4f" stroke-linecap="round" stroke-linejoin="round" stroke-miterlimit="10" stroke-width="2" d="M43,31c0,1.105,0.895,2,2,2s2-0.895,2-2V20c0-2.761-2.238-5-4.999-5l-6.36-0.001c-2.25,0.001-2.786,1.113-3.153,1.801c-0.812,1.523-2.924,5.682-2.924,5.682l-5.439,2.22"/><path fill="none" stroke="#f2ad4f" stroke-miterlimit="10" stroke-width="2" d="M7,31c0,1.105-0.895,2-2,2s-2-0.895-2-2l0-11.001c0-2.761,2.237-5,4.998-5c2.456,0,5.094,0,6.065,0c2.375,0.001,3.232,1.876,3.232,1.876l3.205,5.607l4.395,2.729c0.988,0.494,1.389,1.695,0.895,2.684C25.438,28.595,24.732,29,23.998,29c-0.3,0-0.605-0.068-0.893-0.211l-4.937-3c-0.354-0.177-0.646-0.454-0.842-0.797L15.046,21"/></svg>
