<svg fill="#f2ad4f" xmlns="http://www.w3.org/2000/svg"  viewBox="0 0 50 50" width="50px" height="50px"><path fill="none" stroke="#f2ad4f" stroke-linecap="round" stroke-miterlimit="10" stroke-width="2" d="M25,48.791 c0,0-21-9.694-21-39.871c13.063-2.868,16.902-7.823,21-7.823s7.937,4.955,21,7.823C46,38.097,25,48.791,25,48.791z"/><path d="M32.1,19H31v-1.8c0-3.4-2.7-6.2-6-6.2s-6,2.8-6,6.2V19h-1.1c-1.1,0-1.9,0.9-1.9,1.9V31c0,1.1,0.8,2,1.9,2h14.2 c1,0,1.9-0.9,1.9-1.9V20.9C34,19.9,33.2,19,32.1,19z M21,17.2c0-2.3,1.8-4.2,4-4.2s4,1.9,4,4.2V19h-8V17.2z M32,31H18V21h14V31z M25.9,26.4v1.3c0,0.5-0.4,0.9-0.9,0.9s-0.9-0.4-0.9-0.9v-1.3c-0.3-0.3-0.5-0.6-0.5-1c0-0.8,0.6-1.4,1.4-1.4s1.4,0.6,1.4,1.4 C26.4,25.8,26.2,26.1,25.9,26.4z"/></svg>
