<?xml version="1.0" encoding="utf-8"?>
<!-- Generator: Adobe Illustrator 23.1.0, SVG Export Plug-In . SVG Version: 6.00 Build 0)  -->
<svg version="1.1" id="Layer_1" xmlns="http://www.w3.org/2000/svg" xmlns:xlink="http://www.w3.org/1999/xlink" x="0px" y="0px"
	 viewBox="0 0 50 50" style="enable-background:new 0 0 50 50;" xml:space="preserve">
<path style="fill:none;stroke:#f2ad4f;stroke-width:1.9997;stroke-miterlimit:9.9984;" d="M16,36.1V43h5c1.1,0,2-0.9,2-2v0
	c0-1.1-0.9-2-2-2h-4"/>
<path style="fill:none;stroke:#f2ad4f;stroke-width:1.9997;stroke-miterlimit:9.9984;" d="M16,39h4c1.1,0,2-0.9,2-2l0,0
	c0-0.8-0.4-1.5-1.1-1.8"/>
<path style="fill:none;stroke:#f2ad4f;stroke-width:2;stroke-linecap:round;stroke-linejoin:round;stroke-miterlimit:10;" d="
	M25.4,31.3c2.2,1.8,3.6,4.6,3.6,7.7c0,5.5-4.5,10-10,10S9,44.5,9,39c0-2.8,1.1-5.3,3-7.1"/>
<line style="fill:none;stroke:#f2ad4f;stroke-width:1.9997;stroke-linejoin:round;stroke-miterlimit:3.9994;" x1="19" y1="46" x2="19" y2="44"/>
<path style="fill:none;stroke:#f2ad4f;stroke-width:2;stroke-linecap:round;stroke-linejoin:round;stroke-miterlimit:10;" d="
	M11.8,31.9c-2.7-4.4-5.3-12.4-5.3-13.1c0-2.1,5.4-9.9,6.7-11s15.3-5.3,17.5-6.7c3.2,0,12.2,2.3,14.6,6.9c-4.4,3-4.6,12.2-8.7,16.6
	c-4.2,4.5-9.3,5-11.1,6.4c-1.9,1.4-5.3,5.2-8.8,5.2c-2.1,0-4.3-1.7-4.5-3.8c-0.5-5.6,9.5-9.3,9.5-9.3s4.1-5.6,5.4-6.6
	c0,0-5.6,1.4-8-0.8c0,0-2,3.9-5.3,4.6c0,0,1,1.3,1.2,3.8c0,0,0.9,1,1.1,1.7"/>
</svg>
