<svg fill="#f2ad4f" xmlns="http://www.w3.org/2000/svg"  viewBox="0 0 50 50" width="50px" height="50px"><path fill="none" stroke="#f2ad4f" stroke-linecap="round" stroke-miterlimit="10" stroke-width="2" d="M5,22.912V47h40V22.806"/><path fill="none" stroke="#f2ad4f" stroke-linecap="round" stroke-miterlimit="10" stroke-width="2" d="M10 29H26V42H10zM31 47L31 29 40 29 40 47M5 12L5 7 45 7 45 12M45 12H5c0 0-1 5.015-1 7.5S5.015 24 7.5 24c1.422 0 2.675-.673 3.5-1.703C11.825 23.327 13.078 24 14.5 24s2.675-.673 3.5-1.703C18.825 23.327 20.078 24 21.5 24s2.675-.673 3.5-1.703C25.825 23.327 27.078 24 28.5 24s2.676-.673 3.5-1.703C32.824 23.327 34.078 24 35.5 24s2.676-.673 3.5-1.703C39.824 23.327 41.078 24 42.5 24c2.485 0 3.5-2.015 3.5-4.5S45 12 45 12zM39 22L39 12M32 22L32 12M25 22L25 12M18 22L18 12M11 22L11 12"/></svg>
