<svg fill="#f2ad4f" xmlns="http://www.w3.org/2000/svg"  viewBox="0 0 50 50" width="50px" height="50px"><path fill="none" stroke="#f2ad4f" stroke-linecap="round" stroke-linejoin="round" stroke-miterlimit="10" stroke-width="2" d="M2 5H48V45H2z"/><path fill="none" stroke="#f2ad4f" stroke-linecap="round" stroke-miterlimit="10" stroke-width="2" d="M2 10L48 10"/><path fill="none" stroke="#f2ad4f" stroke-miterlimit="10" stroke-width="2" d="M13 10L13 5M7 10L7 5M19 10L19 5M25 10L25 5M31 10L31 5M37 10L37 5M43 10L43 5"/><path fill="none" stroke="#f2ad4f" stroke-linecap="round" stroke-miterlimit="10" stroke-width="2" d="M48 40L2 40"/><path fill="none" stroke="#f2ad4f" stroke-miterlimit="10" stroke-width="2" d="M37 40L37 45M43 40L43 45M31 40L31 45M25 40L25 45M19 40L19 45M13 40L13 45M7 40L7 45"/><path fill="none" stroke="#f2ad4f" stroke-linecap="round" stroke-linejoin="round" stroke-miterlimit="10" stroke-width="2" d="M21 19L21 31 31 25z"/></svg>
