<svg fill="#f2ad4f" xmlns="http://www.w3.org/2000/svg"  viewBox="0 0 50 50" width="50px" height="50px"><path fill="none" stroke="#f2ad4f" stroke-linecap="round" stroke-linejoin="round" stroke-miterlimit="10" stroke-width="2" d="M40,14c0,0-25.397,0-30,0c-3.076,0-5,3-5,5v21.384C5,42.934,7.066,45,9.616,45h30.768C42.933,45,45,42.934,45,40.384V18.846C45,16.299,42.549,14,40,14z"/><path fill="none" stroke="#f2ad4f" stroke-linejoin="round" stroke-miterlimit="10" stroke-width="2" d="M37,11V7.658c0-3.331-0.719-4.292-4.852-3.202c-3.036,0.801-20.801,5.726-20.801,5.726c-5.471,2.062-6.306,3.817-6.306,7.816L5,20.453"/><path d="M38.502,32C37.121,32,36,30.882,36,29.501S37.121,27,38.502,27C39.879,27,41,28.12,41,29.501S39.879,32,38.502,32z"/></svg>
